HIERARCHY
ROOT Hips
{
  OFFSET 44.201 34.724 -254.719
  CHANNELS 6 Xposition Yposition Zposition Zrotation Xrotation Yrotation
  JOINT LeftUpLeg
  {
    OFFSET 6.836 -5.383 2.172
    CHANNELS 6 Xposition Yposition Zposition Zrotation Xrotation Yrotation
    JOINT LeftLeg
    {
      OFFSET 0.000 -51.700 0.000
      CHANNELS 6 Xposition Yposition Zposition Zrotation Xrotation Yrotation
      JOINT LeftFoot
      {
        OFFSET -0.000 -41.174 -0.000
        CHANNELS 6 Xposition Yposition Zposition Zrotation Xrotation Yrotation
        End Site
        {
          OFFSET 0.000 -7.254 4.188
        }
      }
    }
  }
  JOINT RightUpLeg
  {
    OFFSET -6.087 -5.770 3.918
    CHANNELS 6 Xposition Yposition Zposition Zrotation Xrotation Yrotation
    JOINT RightLeg
    {
      OFFSET -0.000 -46.463 0.000
      CHANNELS 6 Xposition Yposition Zposition Zrotation Xrotation Yrotation
      JOINT RightFoot
      {
        OFFSET 0.000 -43.889 -0.000
        CHANNELS 6 Xposition Yposition Zposition Zrotation Xrotation Yrotation
        End Site
        {
          OFFSET 0.000 -7.208 4.161
        }
      }
    }
  }
  JOINT Spine
  {
    OFFSET 0.000 5.980 -5.980
    CHANNELS 6 Xposition Yposition Zposition Zrotation Xrotation Yrotation
    JOINT LeftShoulder
    {
      OFFSET -0.000 25.762 0.000
      CHANNELS 6 Xposition Yposition Zposition Zrotation Xrotation Yrotation
      JOINT LeftArm
      {
        OFFSET 15.912 0.000 0.000
        CHANNELS 6 Xposition Yposition Zposition Zrotation Xrotation Yrotation
        JOINT LeftForeArm
        {
          OFFSET 24.110 -0.000 0.000
          CHANNELS 6 Xposition Yposition Zposition Zrotation Xrotation Yrotation
          JOINT LeftHand
          {
            OFFSET 23.318 -0.000 -0.000
            CHANNELS 6 Xposition Yposition Zposition Zrotation Xrotation Yrotation
            JOINT LeftHandThumb1
            {
            OFFSET 4.970 -0.620 3.390
            CHANNELS 6 Xposition Yposition Zposition Zrotation Xrotation Yrotation
              JOINT LeftHandThumb2
              {
              OFFSET 2.150 -0.000 0.000
              CHANNELS 6 Xposition Yposition Zposition Zrotation Xrotation Yrotation
                JOINT LeftHandThumb3
                {
                OFFSET 2.200 -0.000 0.000
                CHANNELS 6 Xposition Yposition Zposition Zrotation Xrotation Yrotation
                  JOINT LeftHandThumb4
                  {
                  OFFSET 1.700 -0.000 0.000
                  CHANNELS 6 Xposition Yposition Zposition Zrotation Xrotation Yrotation
                  }
                }
              }
            }
            JOINT LeftHandIndex1
            {
            OFFSET 8.730 0.680 2.070
            CHANNELS 6 Xposition Yposition Zposition Zrotation Xrotation Yrotation
              JOINT LeftHandIndex2
              {
              OFFSET 2.670 -0.000 0.000
              CHANNELS 6 Xposition Yposition Zposition Zrotation Xrotation Yrotation
                JOINT LeftHandIndex3
                {
                OFFSET 2.130 -0.000 0.000
                CHANNELS 6 Xposition Yposition Zposition Zrotation Xrotation Yrotation
                  JOINT LeftHandIndex4
                  {
                  OFFSET 1.800 -0.000 0.000
                  CHANNELS 6 Xposition Yposition Zposition Zrotation Xrotation Yrotation
                  }
                }
              }
            }
            JOINT LeftHandMiddle1
            {
            OFFSET 9.220 0.670 0.550
            CHANNELS 6 Xposition Yposition Zposition Zrotation Xrotation Yrotation
              JOINT LeftHandMiddle2
              {
              OFFSET 2.660 -0.000 0.000
              CHANNELS 6 Xposition Yposition Zposition Zrotation Xrotation Yrotation
                JOINT LeftHandMiddle3
                {
                OFFSET 2.280 -0.000 0.000
                CHANNELS 6 Xposition Yposition Zposition Zrotation Xrotation Yrotation
                  JOINT LeftHandMiddle4
                  {
                  OFFSET 1.500 -0.000 0.000
                  CHANNELS 6 Xposition Yposition Zposition Zrotation Xrotation Yrotation
                  }
                }
              }
            }
            JOINT LeftHandRing1
            {
            OFFSET 9.250 0.670 -1.130
            CHANNELS 6 Xposition Yposition Zposition Zrotation Xrotation Yrotation
              JOINT LeftHandRing2
              {
              OFFSET 2.470 -0.000 0.000
              CHANNELS 6 Xposition Yposition Zposition Zrotation Xrotation Yrotation
                JOINT LeftHandRing3
                {
                OFFSET 2.210 -0.000 0.000
                CHANNELS 6 Xposition Yposition Zposition Zrotation Xrotation Yrotation
                  JOINT LeftHandRing4
                  {
                  OFFSET 1.800 -0.000 0.000
                  CHANNELS 6 Xposition Yposition Zposition Zrotation Xrotation Yrotation
                  }
                }
              }
            }
            JOINT LeftHandPinky1
            {
            OFFSET 9.350 0.660 -2.720
            CHANNELS 6 Xposition Yposition Zposition Zrotation Xrotation Yrotation
              JOINT LeftHandPinky2
              {
              OFFSET 1.630 -0.000 0.000
              CHANNELS 6 Xposition Yposition Zposition Zrotation Xrotation Yrotation
                JOINT LeftHandPinky3
                {
                OFFSET 1.710 -0.000 0.000
                CHANNELS 6 Xposition Yposition Zposition Zrotation Xrotation Yrotation
                  JOINT LeftHandPinky4
                  {
                  OFFSET 1.800 -0.000 0.000
                  CHANNELS 6 Xposition Yposition Zposition Zrotation Xrotation Yrotation
                  }
                }
              }
            }
          }
        }
      }
    }
    JOINT RightShoulder
    {
      OFFSET -0.000 25.762 0.000
      CHANNELS 6 Xposition Yposition Zposition Zrotation Xrotation Yrotation
      JOINT RightArm
      {
        OFFSET -17.782 0.000 -0.000
        CHANNELS 6 Xposition Yposition Zposition Zrotation Xrotation Yrotation
        JOINT RightForeArm
        {
          OFFSET -22.464 0.000 0.000
          CHANNELS 6 Xposition Yposition Zposition Zrotation Xrotation Yrotation
          JOINT RightHand
          {
            OFFSET -22.608 0.000 -0.000
            CHANNELS 6 Xposition Yposition Zposition Zrotation Xrotation Yrotation
            JOINT RightHandThumb1
            {
            OFFSET -4.970 -0.620 3.390
            CHANNELS 6 Xposition Yposition Zposition Zrotation Xrotation Yrotation
              JOINT RightHandThumb2
              {
              OFFSET -2.150 0.000 0.000
              CHANNELS 6 Xposition Yposition Zposition Zrotation Xrotation Yrotation
                JOINT RightHandThumb3
                {
                OFFSET -2.200 0.000 0.000
                CHANNELS 6 Xposition Yposition Zposition Zrotation Xrotation Yrotation
                  JOINT RightHandThumb4
                  {
                  OFFSET -1.700 0.000 0.000
                  CHANNELS 6 Xposition Yposition Zposition Zrotation Xrotation Yrotation
                  }
                }
              }
            }
            JOINT RightHandIndex1
            {
            OFFSET -8.730 0.680 2.070
            CHANNELS 6 Xposition Yposition Zposition Zrotation Xrotation Yrotation
              JOINT RightHandIndex2
              {
              OFFSET -2.670 0.000 0.000
              CHANNELS 6 Xposition Yposition Zposition Zrotation Xrotation Yrotation
                JOINT RightHandIndex3
                {
                OFFSET -2.130 0.000 0.000
                CHANNELS 6 Xposition Yposition Zposition Zrotation Xrotation Yrotation
                  JOINT RightHandIndex4
                  {
                  OFFSET -1.800 0.000 0.000
                  CHANNELS 6 Xposition Yposition Zposition Zrotation Xrotation Yrotation
                  }
                }
              }
            }
            JOINT RightHandMiddle1
            {
            OFFSET -9.220 0.670 0.550
            CHANNELS 6 Xposition Yposition Zposition Zrotation Xrotation Yrotation
              JOINT RightHandMiddle2
              {
              OFFSET -2.660 0.000 0.000
              CHANNELS 6 Xposition Yposition Zposition Zrotation Xrotation Yrotation
                JOINT RightHandMiddle3
                {
                OFFSET -2.280 0.000 0.000
                CHANNELS 6 Xposition Yposition Zposition Zrotation Xrotation Yrotation
                  JOINT RightHandMiddle4
                  {
                  OFFSET -1.500 0.000 0.000
                  CHANNELS 6 Xposition Yposition Zposition Zrotation Xrotation Yrotation
                  }
                }
              }
            }
            JOINT RightHandRing1
            {
            OFFSET -9.250 0.670 -1.130
            CHANNELS 6 Xposition Yposition Zposition Zrotation Xrotation Yrotation
              JOINT RightHandRing2
              {
              OFFSET -2.470 0.000 0.000
              CHANNELS 6 Xposition Yposition Zposition Zrotation Xrotation Yrotation
                JOINT RightHandRing3
                {
                OFFSET -2.210 0.000 0.000
                CHANNELS 6 Xposition Yposition Zposition Zrotation Xrotation Yrotation
                  JOINT RightHandRing4
                  {
                  OFFSET -1.800 0.000 0.000
                  CHANNELS 6 Xposition Yposition Zposition Zrotation Xrotation Yrotation
                  }
                }
              }
            }
            JOINT RightHandPinky1
            {
            OFFSET -9.350 0.660 -2.720
            CHANNELS 6 Xposition Yposition Zposition Zrotation Xrotation Yrotation
              JOINT RightHandPinky2
              {
              OFFSET -1.630 0.000 0.000
              CHANNELS 6 Xposition Yposition Zposition Zrotation Xrotation Yrotation
                JOINT RightHandPinky3
                {
                OFFSET -1.710 0.000 0.000
                CHANNELS 6 Xposition Yposition Zposition Zrotation Xrotation Yrotation
                  JOINT RightHandPinky4
                  {
                  OFFSET -1.800 0.000 0.000
                  CHANNELS 6 Xposition Yposition Zposition Zrotation Xrotation Yrotation
                  }
                }
              }
            }
          }
        }
      }
    }
    JOINT Neck
    {
      OFFSET -0.000 25.762 0.000
      CHANNELS 6 Xposition Yposition Zposition Zrotation Xrotation Yrotation
      JOINT Head
      {
        OFFSET -0.000 31.660 -0.000
        CHANNELS 6 Xposition Yposition Zposition Zrotation Xrotation Yrotation
        End Site
        {
          OFFSET -0.000 0.127 -0.000
        }
      }
    }
  }
}
MOTION
Frames:	4
Frame Time:	0.0333333
63.2371 26.4871 -259.901 28.0972 4.60738 -81.8524 2.14062 -0.586396 -0.532782 -6.53103 -57.3176 8.49339 0 -45.3367 1.19209e-05 10.7546 19.9613 -1.09001e-05 -2.38419e-05 -45.3467 3.57628e-05 -14.669 -8.04545 -10.1942 -1.97237 -2.50095 2.27416 -11.0134 -3.26521 34.0304 1.19209e-05 -45.7667 2.38419e-05 21.1746 -8.11789 -6.89932e-06 4.76837e-05 -47.3041 -2.38419e-05 -37.0306 -4.71912 -27.7121 7.15256e-05 6.95318 -6.95322 0.84848 -28.1607 0.404794 -4.76837e-05 25.7619 2.38419e-05 26.7704 1.40873e-05 -1.82263 14.7532 2.38419e-05 0 -92.991 41.1924 -5.77442 24.6713 2.38419e-05 5.96046e-06 1.64744e-05 -3.69441e-06 -115.279 24.5332 -2.38419e-05 1.19209e-05 -13.4246 0.103378 -6.23153 0.0062 0.0497 0.0339 0 0 0 0 0.0215 0 0 0 0 0 0.022 0 0 0 0 0 0.017 0 0 0 0 -0.0068 0.0873 0.0207 0 0 0 0 0.0267 0 0 0 0 0 0.0213 0 0 0 0 0 0.018 0 0 0 0 -0.0067 0.0922 0.0055 0 0 0 0 0.0266 0 0 0 0 0 0.0228 0 0 0 0 0 0.015 0 0 0 0 -0.0067 0.0925 -0.0113 0 0 0 0 0.0247 0 0 0 0 0 0.0221 0 0 0 0 0 0.018 0 0 0 0 -0.0066 0.0935 -0.0272 0 0 0 0 0.0163 0 0 0 0 0 0.0171 0 0 0 0 0 0.018 0 0 0 0 -4.76837e-05 25.7619 2.38419e-05 -23.8723 1.70755e-06 1.55102 -17.3358 1.19209e-05 -4.76837e-05 82.3477 39.6802 25.9561 -22.4873 -3.57628e-05 2.38419e-05 0.000108586 1.20343e-05 96.6273 -22.6163 1.19209e-05 -2.98023e-06 4.01902 1.0043 -20.3612 -0.0062 0.0497 0.0339 35.61 0 0 0 0.0215 0 0 -35.61 0 0 0.022 0 0 -35.61 0 0 0.017 0 0 0 0 0.0068 0.0873 0.0207 35.61 0 0 0 0.0267 0 63.3067 0 0 0 0.0213 0 71.22 0 0 0 0.018 0 0 0 0 0.0067 0.0922 0.0055 35.61 0 0 0 0.0266 0 63.3067 0 0 0 0.0228 0 71.22 0 0 0 0.015 0 0 0 0 0.0067 0.0925 -0.0113 35.61 0 0 0 0.0247 0 63.3067 0 0 0 0.0221 0 71.22 0 0 0 0.018 0 0 0 0 0.0066 0.0935 -0.0272 35.61 0 0 0 0.0163 0 63.3067 0 0 0 0.0171 0 71.22 0 0 0 0.018 0 0 0 0 -4.76837e-05 25.7619 2.38419e-05 1.98822 9.91567 -0.342499 2.38419e-05 41.3232 -3.57628e-05 9.87176e-06 -7.85739e-06 3.4151e-06 
63.2371 26.4871 -259.901 28.0972 4.60738 -81.8524 2.14062 -0.586396 -0.532782 -6.53103 -57.3176 8.49339 0 -45.3367 1.19209e-05 10.7546 19.9613 -1.09001e-05 -2.38419e-05 -45.3467 3.57628e-05 -14.669 -8.04545 -10.1942 -1.97237 -2.50095 2.27416 -11.0134 -3.26521 34.0304 1.19209e-05 -45.7667 2.38419e-05 21.1746 -8.11789 -6.89932e-06 4.76837e-05 -47.3041 -2.38419e-05 -37.0306 -4.71912 -27.7121 7.15256e-05 6.95318 -6.95322 0.84848 -28.1607 0.404794 -4.76837e-05 25.7619 2.38419e-05 26.7704 1.40873e-05 -1.82263 14.7532 2.38419e-05 0 -92.991 41.1924 -5.77442 24.6713 2.38419e-05 5.96046e-06 1.64744e-05 -3.69441e-06 -115.279 24.5332 -2.38419e-05 1.19209e-05 -13.4246 0.103378 -6.23153 0.0062 0.0497 0.0339 0 0 0 0 0.0215 0 0 0 0 0 0.022 0 0 0 0 0 0.017 0 0 0 0 -0.0068 0.0873 0.0207 0 0 0 0 0.0267 0 0 0 0 0 0.0213 0 0 0 0 0 0.018 0 0 0 0 -0.0067 0.0922 0.0055 0 0 0 0 0.0266 0 0 0 0 0 0.0228 0 0 0 0 0 0.015 0 0 0 0 -0.0067 0.0925 -0.0113 0 0 0 0 0.0247 0 0 0 0 0 0.0221 0 0 0 0 0 0.018 0 0 0 0 -0.0066 0.0935 -0.0272 0 0 0 0 0.0163 0 0 0 0 0 0.0171 0 0 0 0 0 0.018 0 0 0 0 -4.76837e-05 25.7619 2.38419e-05 -23.8723 1.70755e-06 1.55102 -17.3358 1.19209e-05 -4.76837e-05 82.3477 39.6802 25.9561 -22.4873 -3.57628e-05 2.38419e-05 0.000108586 1.20343e-05 96.6273 -22.6163 1.19209e-05 -2.98023e-06 4.01902 1.0043 -20.3612 -0.0062 0.0497 0.0339 35.61 0 0 0 0.0215 0 0 -35.61 0 0 0.022 0 0 -35.61 0 0 0.017 0 0 0 0 0.0068 0.0873 0.0207 35.61 0 0 0 0.0267 0 63.3067 0 0 0 0.0213 0 71.22 0 0 0 0.018 0 0 0 0 0.0067 0.0922 0.0055 35.61 0 0 0 0.0266 0 63.3067 0 0 0 0.0228 0 71.22 0 0 0 0.015 0 0 0 0 0.0067 0.0925 -0.0113 35.61 0 0 0 0.0247 0 63.3067 0 0 0 0.0221 0 71.22 0 0 0 0.018 0 0 0 0 0.0066 0.0935 -0.0272 35.61 0 0 0 0.0163 0 63.3067 0 0 0 0.0171 0 71.22 0 0 0 0.018 0 0 0 0 -4.76837e-05 25.7619 2.38419e-05 1.98822 9.91567 -0.342499 2.38419e-05 41.3232 -3.57628e-05 9.87176e-06 -7.85739e-06 3.4151e-06 
63.2371 26.4871 -259.901 28.0972 4.60738 -81.8524 2.14062 -0.586396 -0.532782 -6.53103 -57.3176 8.49339 0 -45.3367 1.19209e-05 10.7546 19.9613 -1.09001e-05 -2.38419e-05 -45.3467 3.57628e-05 -14.669 -8.04545 -10.1942 -1.97237 -2.50095 2.27416 -11.0134 -3.26521 34.0304 1.19209e-05 -45.7667 2.38419e-05 21.1746 -8.11789 -6.89932e-06 4.76837e-05 -47.3041 -2.38419e-05 -37.0306 -4.71912 -27.7121 7.15256e-05 6.95318 -6.95322 0.84848 -28.1607 0.404794 -4.76837e-05 25.7619 2.38419e-05 26.7704 1.40873e-05 -1.82263 14.7532 2.38419e-05 0 -92.991 41.1924 -5.77442 24.6713 2.38419e-05 5.96046e-06 1.64744e-05 -3.69441e-06 -115.279 24.5332 -2.38419e-05 1.19209e-05 -13.4246 0.103378 -6.23153 0.0062 0.0497 0.0339 0 0 0 0 0.0215 0 0 0 0 0 0.022 0 0 0 0 0 0.017 0 0 0 0 -0.0068 0.0873 0.0207 0 0 0 0 0.0267 0 0 0 0 0 0.0213 0 0 0 0 0 0.018 0 0 0 0 -0.0067 0.0922 0.0055 0 0 0 0 0.0266 0 0 0 0 0 0.0228 0 0 0 0 0 0.015 0 0 0 0 -0.0067 0.0925 -0.0113 0 0 0 0 0.0247 0 0 0 0 0 0.0221 0 0 0 0 0 0.018 0 0 0 0 -0.0066 0.0935 -0.0272 0 0 0 0 0.0163 0 0 0 0 0 0.0171 0 0 0 0 0 0.018 0 0 0 0 -4.76837e-05 25.7619 2.38419e-05 -23.8723 1.70755e-06 1.55102 -17.3358 1.19209e-05 -4.76837e-05 82.3477 39.6802 25.9561 -22.4873 -3.57628e-05 2.38419e-05 0.000108586 1.20343e-05 96.6273 -22.6163 1.19209e-05 -2.98023e-06 4.01902 1.0043 -20.3612 -0.0062 0.0497 0.0339 35.61 0 0 0 0.0215 0 0 -35.61 0 0 0.022 0 0 -35.61 0 0 0.017 0 0 0 0 0.0068 0.0873 0.0207 35.61 0 0 0 0.0267 0 63.3067 0 0 0 0.0213 0 71.22 0 0 0 0.018 0 0 0 0 0.0067 0.0922 0.0055 35.61 0 0 0 0.0266 0 63.3067 0 0 0 0.0228 0 71.22 0 0 0 0.015 0 0 0 0 0.0067 0.0925 -0.0113 35.61 0 0 0 0.0247 0 63.3067 0 0 0 0.0221 0 71.22 0 0 0 0.018 0 0 0 0 0.0066 0.0935 -0.0272 35.61 0 0 0 0.0163 0 63.3067 0 0 0 0.0171 0 71.22 0 0 0 0.018 0 0 0 0 -4.76837e-05 25.7619 2.38419e-05 1.98822 9.91567 -0.342499 2.38419e-05 41.3232 -3.57628e-05 9.87176e-06 -7.85739e-06 3.4151e-06 
63.5833 26.3065 -259.636 28.4556 4.70178 -81.6708 2.20842 -0.580963 -0.486028 -8.55297 -57.8639 4.81821 0 -44.8302 1.19209e-05 11.1437 19.8312 0 0 -45.9178 -1.19209e-05 -15.0592 -5.66671 -10.033 -2.06881 -2.54239 2.2725 -11.0532 -3.36158 32.3273 0 -46.4484 2.38419e-05 21.3572 -8.19803 1.03511e-05 -1.19209e-05 -46.6202 2.38419e-05 -40.6398 15.2946 -16.2484 2.38419e-05 6.95854 -6.95854 0.870352 -28.2256 0.239344 0 25.7619 3.57628e-05 26.3878 7.68396e-06 -2.13924 14.6877 -2.38419e-05 -2.38419e-05 -92.6556 43.1844 -5.77086 24.6437 0 1.19209e-05 -2.86232e-05 9.94716e-06 -116.476 25.3563 -2.38419e-05 1.19209e-05 -11.9791 0.115276 -7.28151 0.0062 0.0497 0.0339 0 0 0 0 0.0215 0 0 0 0 0 0.022 0 0 0 0 0 0.017 0 0 0 0 -0.0068 0.0873 0.0207 0 0 0 0 0.0267 0 0 0 0 0 0.0213 0 0 0 0 0 0.018 0 0 0 0 -0.0067 0.0922 0.0055 0 0 0 0 0.0266 0 0 0 0 0 0.0228 0 0 0 0 0 0.015 0 0 0 0 -0.0067 0.0925 -0.0113 0 0 0 0 0.0247 0 0 0 0 0 0.0221 0 0 0 0 0 0.018 0 0 0 0 -0.0066 0.0935 -0.0272 0 0 0 0 0.0163 0 0 0 0 0 0.0171 0 0 0 0 0 0.018 0 0 0 0 0 25.7619 3.57628e-05 -24.1801 8.11085e-06 1.78512 -17.5998 8.9407e-06 -1.19209e-05 82.7391 39.1178 26.206 -22.4899 -1.19209e-05 -2.38419e-05 -4.19463e-05 1.21498e-05 99.0842 -22.9348 -1.19209e-05 -1.78814e-05 -24.7429 1.32896 -39.6182 -0.0062 0.0497 0.0339 41.9199 0 0 0 0.0215 0 0 -41.9199 0 0 0.022 0 0 -41.9199 0 0 0.017 0 0 0 0 0.0068 0.0873 0.0207 41.9199 0 0 0 0.0267 0 74.5242 0 0 0 0.0213 0 83.8397 0 0 0 0.018 0 0 0 0 0.0067 0.0922 0.0055 41.9199 0 0 0 0.0266 0 74.5242 0 0 0 0.0228 0 83.8397 0 0 0 0.015 0 0 0 0 0.0067 0.0925 -0.0113 41.9199 0 0 0 0.0247 0 74.5242 0 0 0 0.0221 0 83.8397 0 0 0 0.018 0 0 0 0 0.0066 0.0935 -0.0272 41.9199 0 0 0 0.0163 0 74.5242 0 0 0 0.0171 0 83.8397 0 0 0 0.018 0 0 0 0 0 25.7619 3.57628e-05 2.00589 9.86143 -0.343692 -4.76837e-05 41.416 -1.19209e-05 1.08323e-05 -6.91023e-06 -8.53774e-07 
